<svg xmlns="http://www.w3.org/2000/svg" viewBox="0 0 512 512"><defs><style>.cls-1{fill:#eab14d;}.cls-2{fill:#e49542;}.cls-3{fill:#f4fbff;}.cls-4{fill:#daf1f4;}.cls-5{fill:#2b4d66;}.cls-6{fill:#da4a54;}.cls-7{fill:#365e7d;}</style></defs><g id="Layer_2" data-name="Layer 2"><g id="Capa_1" data-name="Capa 1"><circle class="cls-1" cx="256" cy="256" r="256"/><path class="cls-2" d="M256,0c-4.57,0-9.11.13-13.62.36C377.43,7.44,484.76,119.18,484.76,256S377.43,504.56,242.38,511.64q6.76.36,13.62.36c141.39,0,256-114.61,256-256S397.39,0,256,0Z"/><circle class="cls-3" cx="256" cy="256" r="199.49"/><path class="cls-4" d="M256,56.51c-5.52,0-11,.24-16.4.68C342.09,65.53,422.68,151.35,422.68,256S342.09,446.47,239.59,454.81c5.42.44,10.88.68,16.41.68,110.17,0,199.49-89.32,199.49-199.49S366.17,56.51,256,56.51Z"/><path class="cls-5" d="M256,117.91a7.73,7.73,0,0,1-7.73-7.72V98.85a7.73,7.73,0,0,1,15.46,0v11.33a7.73,7.73,0,0,1-7.73,7.73Z"/><path class="cls-5" d="M358.69,160.79a7.73,7.73,0,0,1-5.47-13.19l8-8a7.73,7.73,0,1,1,10.93,10.92l-8,8a7.7,7.7,0,0,1-5.46,2.26Z"/><path class="cls-5" d="M412.32,263.73H401a7.73,7.73,0,0,1,0-15.46h11.34a7.73,7.73,0,0,1,0,15.46Z"/><path class="cls-5" d="M366.11,374.43a7.67,7.67,0,0,1-5.46-2.26l-8-8a7.73,7.73,0,0,1,10.93-10.93l8,8a7.73,7.73,0,0,1-5.46,13.19Z"/><path class="cls-5" d="M255.16,420a7.73,7.73,0,0,1-7.73-7.72V401a7.73,7.73,0,1,1,15.45,0v11.34A7.72,7.72,0,0,1,255.16,420Z"/><path class="cls-5" d="M144.45,373.84A7.73,7.73,0,0,1,139,360.65l8-8a7.73,7.73,0,0,1,10.92,10.93l-8,8A7.68,7.68,0,0,1,144.45,373.84Z"/><path class="cls-5" d="M110.18,262.89H98.84a7.73,7.73,0,0,1,0-15.46h11.34a7.73,7.73,0,1,1,0,15.46Z"/><path class="cls-5" d="M153.07,160.2a7.71,7.71,0,0,1-5.47-2.26l-8-8A7.73,7.73,0,1,1,150.51,139l8,8a7.73,7.73,0,0,1-5.46,13.19Z"/><path class="cls-5" d="M256,263.73H190.38a7.73,7.73,0,1,1,0-15.46h57.89V150a7.73,7.73,0,0,1,15.46,0V256A7.73,7.73,0,0,1,256,263.73Z"/><path class="cls-6" d="M335.27,304.49a7.72,7.72,0,0,1-3.53-.86l-79.27-40.76a7.72,7.72,0,0,1,7.06-13.74l79.28,40.76a7.73,7.73,0,0,1-3.54,14.6Z"/><circle class="cls-7" cx="256" cy="256" r="20.62"/></g></g></svg>