<svg xmlns="http://www.w3.org/2000/svg" viewBox="0 0 47.81 47.81"><defs><style>.cls-1{fill:#f9b324;}.cls-2,.cls-3{fill:none;stroke:#fff;stroke-miterlimit:10;}.cls-2{stroke-width:0.5px;}.cls-3{stroke-width:0.75px;}</style></defs><g id="Layer_2" data-name="Layer 2"><g id="Layer_1-2" data-name="Layer 1"><circle class="cls-1" cx="23.91" cy="23.91" r="23.91"/><path class="cls-2" d="M12.39,16.23v1.18h3.68V16.23Z"/><path class="cls-3" d="M10.85,33.19V18.29h1.78c1.35,0,2.7,0,4.06,0a.69.69,0,0,0,.67-.36c.64-1,1.31-2,2-3a.62.62,0,0,1,.59-.32q4,0,8,0a.66.66,0,0,1,.64.33c.64,1,1.32,2,2,3a.65.65,0,0,0,.63.34H37v14.9Z"/><path class="cls-3" d="M23.92,30.59A5.32,5.32,0,1,0,18.6,25.2,5.34,5.34,0,0,0,23.92,30.59Z"/><path class="cls-3" d="M16.07,21.45a1.63,1.63,0,0,1-1.62,1.65,1.64,1.64,0,0,1,0-3.28A1.64,1.64,0,0,1,16.07,21.45Z"/><path class="cls-3" d="M23.92,28.27a3,3,0,1,1,3-3.21A3,3,0,0,1,23.92,28.27Z"/></g></g></svg>