<svg xmlns="http://www.w3.org/2000/svg" viewBox="0 0 97.94 97.94"><defs><style>.cls-1{fill:#f9f9f9;}.cls-2{fill:#fff;}</style></defs><g id="Layer_2" data-name="Layer 2"><g id="Layer_1-2" data-name="Layer 1"><path class="cls-1" d="M49.31,0C22.28-.08.09,21.81,0,48.64a49,49,0,0,0,97.94.68C98,22.32,76.12.08,49.31,0Zm-.58,93.59A44.59,44.59,0,0,1,48.9,4.42,44.92,44.92,0,0,1,93.56,49.26,44.79,44.79,0,0,1,48.73,93.59Z"/><path class="cls-2" d="M74.47,30.27a12,12,0,0,1-.29,1.32,6.77,6.77,0,0,1-2.38,3.18,5.55,5.55,0,0,1-5.76.91,6.8,6.8,0,0,1-3.89-3.94.44.44,0,0,0-.47-.33c-3,0-5.91-.06-8.87-.07l-25.43,0c-.83,0-1.65-.06-2.47,0a1.51,1.51,0,0,1-1.42-1.39,1.77,1.77,0,0,1,.94-1.65.59.59,0,0,1,.3,0L52,28.14c3,0,6,0,9-.06l.85,0a.25.25,0,0,0,.26-.2,7.45,7.45,0,0,1,2.38-3.19,5.86,5.86,0,0,1,7.59.26,7,7,0,0,1,2.11,2.95,12.65,12.65,0,0,1,.29,1.36ZM68.11,26.6a2.8,2.8,0,0,0-2.63,1.24A3.43,3.43,0,0,0,65,30a3.15,3.15,0,0,0,.54,1.71,3.56,3.56,0,0,0,4.16.89A3.3,3.3,0,0,0,71,28.24,2.72,2.72,0,0,0,68.11,26.6Z"/><path class="cls-2" d="M74.47,49.21a2.53,2.53,0,0,1-.28.6,1.44,1.44,0,0,1-1.22.63q-17.47,0-34.95.08c-.61,0-1.22,0-1.82,0a.32.32,0,0,0-.34.25,7,7,0,0,1-3,3.55,5.45,5.45,0,0,1-5.64.23A7,7,0,0,1,24,51.16a5.37,5.37,0,0,1-.1-4.25A6.6,6.6,0,0,1,27.58,43a5.68,5.68,0,0,1,6.32,1.15,6.94,6.94,0,0,1,2,2.83.26.26,0,0,0,.28.2c1.14,0,2.29.07,3.43.08l33.5.07a1.44,1.44,0,0,1,1.33,1l.06.2Zm-47.78-.58a3,3,0,0,0,1.71,3.16,4.11,4.11,0,0,0,2.17.19,2.69,2.69,0,0,0,1.85-1.09A3.41,3.41,0,0,0,33,48.24,2.73,2.73,0,0,0,31.25,46a4,4,0,0,0-2-.19,2.71,2.71,0,0,0-2,1.14A2.9,2.9,0,0,0,26.69,48.63Z"/><path class="cls-2" d="M48.46,74.39a10.4,10.4,0,0,1-1.28-.31,7.13,7.13,0,0,1-4.19-4c-.17-.39-.16-.39-.59-.4l-15.86-.11c-.58,0-1.16,0-1.74,0a1.34,1.34,0,0,1-1.29-1.15,1.64,1.64,0,0,1,.25-1.22,1.31,1.31,0,0,1,1.14-.6l8.89-.1,8.82-.05c.07,0,.14,0,.14,0,.41-.67.76-1.38,1.23-2a6.41,6.41,0,0,1,3.32-2.4,5.69,5.69,0,0,1,5.17.92A7.13,7.13,0,0,1,55,66.14a.32.32,0,0,0,.25.19c.57,0,1.14.07,1.72.07l14.09.08c.68,0,1.35,0,2,.06a1.29,1.29,0,0,1,1.31,1.1l0,.09v.63s0,0,0,.09a1.3,1.3,0,0,1-1.26,1.06c-.36,0-.71,0-1.07,0l-12.32.07c-1.48,0-3,0-4.44.08a.31.31,0,0,0-.33.22,6.63,6.63,0,0,1-1.89,2.75,6.49,6.49,0,0,1-2.91,1.58c-.24.06-.48.1-.71.14ZM52.18,68h-.07a2.8,2.8,0,0,0-1.61-2.88,3.83,3.83,0,0,0-2.17-.24,2.6,2.6,0,0,0-2.16,1.54,3.6,3.6,0,0,0,0,3.26,2.5,2.5,0,0,0,1.91,1.38,6.51,6.51,0,0,0,1.65,0,2.51,2.51,0,0,0,2.1-1.62A7.81,7.81,0,0,0,52.18,68Z"/></g></g></svg>