<svg id="Layer_1" data-name="Layer 1" xmlns="http://www.w3.org/2000/svg" viewBox="0 0 30 30"><defs><style>.cls-1{fill:#fff;}</style></defs><path class="cls-1" d="M27,6.81l-.65-2A1.83,1.83,0,0,0,24.64,3.6h-5.5V1.81A1.63,1.63,0,0,0,17.52.19h-5a1.63,1.63,0,0,0-1.62,1.62V3.6H5.36A1.83,1.83,0,0,0,3.63,4.85L3,6.81a1.45,1.45,0,0,0,.2,1.32,1.47,1.47,0,0,0,1.19.61h.68L6.56,27.35a2.69,2.69,0,0,0,2.67,2.46H21.08a2.69,2.69,0,0,0,2.67-2.46l1.5-18.61h.38a1.47,1.47,0,0,0,1.19-.61A1.45,1.45,0,0,0,27,6.81ZM12.6,1.92h4.8V3.6H12.6ZM22,27.21a1,1,0,0,1-.94.87H9.23a1,1,0,0,1-.94-.87L6.79,8.74H23.51ZM4.74,7,5.28,5.4a.08.08,0,0,1,.08-.06H24.64a.08.08,0,0,1,.08.06L25.26,7Z"/><path class="cls-1" d="M19.25,27.15h0a.87.87,0,0,0,.87-.82L21,10.68a.87.87,0,0,0-.83-.91.86.86,0,0,0-.91.82l-.81,15.65A.87.87,0,0,0,19.25,27.15Z"/><path class="cls-1" d="M9.88,26.33a.87.87,0,0,0,.86.82h0a.87.87,0,0,0,.82-.92l-.85-15.64A.87.87,0,0,0,9,10.68Z"/><path class="cls-1" d="M15,27.15a.87.87,0,0,0,.87-.87V10.64a.87.87,0,1,0-1.74,0V26.28A.87.87,0,0,0,15,27.15Z"/></svg>