<svg xmlns="http://www.w3.org/2000/svg" viewBox="0 0 284.18 473.88"><defs><style>.cls-1{fill:#f7b64b;}.cls-2{fill:#ffd15d;}</style></defs><g id="Layer_2" data-name="Layer 2"><g id="Capa_1" data-name="Capa 1"><path class="cls-1" d="M142.09.09C63.83.09,0,63.92,0,142.18a140.8,140.8,0,0,0,28.42,85.25L133.34,368.79c1.53,2.18,5.69,4.37,8.75,4.37,3.28,0,7.21-2.4,8.74-4.37.44-.66,106-142.89,106.9-144.2.22,0,.22,0,.22-.22a141.44,141.44,0,0,0,26.23-82.19C284.18,63.92,220.35.09,142.09.09Zm0,218.6a76.51,76.51,0,1,1,76.51-76.51A76.59,76.59,0,0,1,142.09,218.69Z"/><path class="cls-2" d="M142.09,0V65.58a76.51,76.51,0,0,1,0,153V373.07c3.28,0,7.21-2.4,8.74-4.37.44-.66,106-142.89,106.9-144.2.22,0,.22,0,.22-.22a141.44,141.44,0,0,0,26.23-82.19C284.18,63.83,220.35,0,142.09,0Z"/><path class="cls-1" d="M209.22,320.6v8.71c28,13.64,46.37,36.25,46.37,61.85,0,41.66-48.58,75.43-108.5,75.43s-108.5-33.77-108.5-75.43c0-25.93,18.81-48.79,47.46-62.37v-8.65c-34.71,14.45-57.94,40.84-57.94,71,0,45.68,53.27,82.72,119,82.72s119-37,119-82.72C266.07,361.3,243.32,335.15,209.22,320.6Z"/></g></g></svg>