<svg id="Layer_1" data-name="Layer 1" xmlns="http://www.w3.org/2000/svg" viewBox="0 0 30 30"><defs><style>.cls-1{fill:#fff;}</style></defs><path class="cls-1" d="M24.64,15a1.07,1.07,0,0,0-1.07,1.07V26.79a1.07,1.07,0,0,1-1.07,1.07H3.21a1.07,1.07,0,0,1-1.07-1.07V5.36A1.07,1.07,0,0,1,3.21,4.29H16.07a1.08,1.08,0,0,0,0-2.15H3.21A3.22,3.22,0,0,0,0,5.36V26.79A3.21,3.21,0,0,0,3.21,30H22.5a3.21,3.21,0,0,0,3.21-3.21V16.07A1.07,1.07,0,0,0,24.64,15Z"/><path class="cls-1" d="M28.8,1.2a4.1,4.1,0,0,0-5.8,0L8.89,15.31a1.09,1.09,0,0,0-.26.42L6.48,22.16a1.09,1.09,0,0,0,.68,1.36,1.18,1.18,0,0,0,.68,0l6.43-2.15a1.09,1.09,0,0,0,.42-.26L28.8,7A4.1,4.1,0,0,0,28.8,1.2ZM27.28,5.49,13.36,19.42,9.19,20.81l1.39-4.16L24.51,2.72a2,2,0,1,1,2.77,2.77Z"/></svg>